<svg version="1.1" id="Layer_1" xmlns="http://www.w3.org/2000/svg" xmlns:xlink="http://www.w3.org/1999/xlink" x="0px" y="0px"
	 width="100%" viewBox="0 0 500 500" enable-background="new 0 0 500 500" xml:space="preserve">
<path fill="#292929" opacity="1.000000" stroke="none" 
	d="
M280.000000,501.000000 
	C186.666687,501.000000 93.833374,501.000000 1.000050,501.000000 
	C1.000033,334.333405 1.000033,167.666794 1.000017,1.000139 
	C167.666565,1.000093 334.333130,1.000093 500.999756,1.000046 
	C500.999847,167.666519 500.999847,334.333038 500.999939,500.999786 
	C427.500000,501.000000 354.000000,501.000000 280.000000,501.000000 
M292.786194,264.816559 
	C292.786194,264.816559 292.449585,264.507416 292.650482,263.808746 
	C302.676025,239.243286 312.701569,214.677826 323.066925,189.279800 
	C313.863129,189.279800 305.586517,189.416626 297.318420,189.211151 
	C294.098206,189.131134 292.674530,190.238113 291.706238,193.324142 
	C288.942200,202.133865 285.789795,210.821732 282.464142,220.506958 
	C280.097687,214.176666 278.101410,208.738449 276.031036,203.328598 
	C274.311920,198.836700 273.700043,192.614120 270.411255,190.387253 
	C266.929260,188.029556 260.865967,189.409012 255.926971,189.299835 
	C251.226578,189.195938 246.522079,189.277466 241.278030,189.277466 
	C242.180283,191.766083 242.622971,193.179092 243.195541,194.537354 
	C250.882797,212.773132 258.473663,231.051270 266.390930,249.186829 
	C267.876587,252.589874 267.899078,255.331802 266.388092,258.563721 
	C264.945038,261.650360 263.986511,264.963501 262.466492,269.133087 
	C270.297363,269.133087 277.227905,269.133087 282.882782,269.133087 
	C279.967316,274.936096 275.199310,280.433655 274.653442,286.322601 
	C273.417969,299.651581 274.264801,313.173553 274.264801,326.587830 
	C283.164246,326.587830 292.051361,326.587830 301.229431,326.587830 
	C301.229431,315.857422 301.331787,305.540833 301.173920,295.228210 
	C301.118561,291.614838 302.299927,289.939270 306.054688,290.230652 
	C308.456329,290.417053 310.884186,290.265594 313.358887,290.265594 
	C313.358887,281.033875 313.358887,272.652740 313.358887,263.464508 
	C306.294617,264.045746 299.706787,264.587799 292.786194,264.816559 
M152.505051,238.164642 
	C164.962357,232.873230 171.570984,223.369736 172.023132,209.943268 
	C172.695343,189.982224 158.540695,174.673416 138.517853,173.895905 
	C126.038399,173.411301 113.527824,173.716156 101.031197,173.710815 
	C100.109741,173.710434 99.188141,174.067673 98.401627,174.230682 
	C98.401627,200.628815 98.401627,226.682816 98.401627,252.647125 
	C108.212418,252.647125 117.617195,252.647125 127.494797,252.647125 
	C127.494797,250.489166 127.494614,248.681793 127.494827,246.874405 
	C127.496414,233.543518 127.423279,220.211655 127.598923,206.883072 
	C127.619759,205.302063 128.777084,202.588928 129.795273,202.390579 
	C132.484879,201.866638 135.627960,201.811798 138.127197,202.773849 
	C140.032883,203.507416 142.601395,206.263580 142.399368,207.792923 
	C142.139008,209.763748 139.711502,212.065628 137.657959,213.015610 
	C135.424042,214.049026 132.548813,213.696075 129.855453,213.957047 
	C129.855453,223.103699 129.855453,231.867554 129.855453,242.030243 
	C137.510559,240.784729 144.647141,239.623581 152.505051,238.164642 
M150.500137,248.169907 
	C143.734833,248.169907 136.969543,248.169907 130.188934,248.169907 
	C130.188934,274.842468 130.188934,300.724091 130.188934,326.609863 
	C139.955841,326.609863 149.336487,326.609863 159.249847,326.609863 
	C159.249847,309.824371 159.249847,293.425323 159.249847,276.819885 
	C162.608932,276.819885 165.433167,276.713318 168.245804,276.848145 
	C171.418884,277.000244 173.762650,278.461884 173.972626,281.893860 
	C174.202576,285.652191 171.706131,287.243591 168.435715,287.723572 
	C166.171921,288.055817 163.851944,288.005280 161.286255,288.139954 
	C161.286255,297.104187 161.286255,305.831909 161.286255,315.028290 
	C164.658890,315.028290 167.780670,315.126892 170.894608,315.011993 
	C188.873077,314.348694 202.144104,302.280121 203.102798,285.781799 
	C204.191345,267.048615 192.297607,251.454437 174.417877,249.065491 
	C166.873337,248.057449 159.144791,248.426697 150.500137,248.169907 
M195.593933,251.050171 
	C200.392365,251.881287 205.190796,252.712387 210.345825,253.605270 
	C210.345825,243.702316 210.345825,235.003372 210.345825,226.177002 
	C209.152756,226.069016 208.337112,225.982040 207.519455,225.923431 
	C203.688889,225.648819 200.961395,223.928070 201.199234,219.799332 
	C201.385254,216.569946 203.571075,214.635498 206.932938,214.859375 
	C210.942856,215.126389 212.116272,217.900665 212.117035,221.464020 
	C212.117935,225.625961 212.125626,229.787903 212.126801,233.949844 
	C212.128586,240.205307 212.127243,246.460785 212.127243,252.802917 
	C221.565353,252.802917 230.186401,252.802917 239.198685,252.802917 
	C239.198685,240.822037 239.760590,229.003845 239.073349,217.258774 
	C237.900970,197.222595 217.694077,183.300629 198.298431,188.565750 
	C185.010361,192.172913 174.999619,203.967850 174.031876,217.157288 
	C172.934021,232.120010 180.396729,244.188477 195.593933,251.050171 
M264.937653,315.390839 
	C273.205658,303.859528 274.256500,291.555603 267.402985,279.276123 
	C260.792694,267.432434 250.158981,261.322510 236.432114,262.127808 
	C222.744949,262.930786 212.970062,270.161560 207.526642,282.621399 
	C200.925278,297.731781 206.840164,315.190033 221.020691,323.955414 
	C235.274887,332.766327 253.013611,329.496979 264.937653,315.390839 
M376.919006,269.386902 
	C364.984772,279.640137 361.545502,294.963226 368.119110,308.593201 
	C374.142059,321.081482 388.190094,328.759918 400.822693,326.377686 
	C400.822693,317.698059 400.822693,308.999390 400.822693,300.266846 
	C399.251221,300.147278 398.076111,300.155853 396.938873,299.952667 
	C393.727203,299.378845 391.338043,297.343323 392.194916,294.199554 
	C392.745972,292.177856 395.184021,289.748932 397.202362,289.259552 
	C400.423828,288.478333 402.299377,291.133362 402.798096,294.245056 
	C403.084717,296.033417 402.930695,297.896362 402.932587,299.725769 
	C402.941833,308.656738 402.936768,317.587677 402.936768,326.603851 
	C412.235626,326.603851 420.926392,326.603851 429.776703,326.603851 
	C429.776703,314.580750 430.439728,302.906891 429.597931,291.342529 
	C428.679871,278.730347 421.541412,269.577240 409.920624,264.632874 
	C398.465240,259.758850 387.478149,261.335663 376.919006,269.386902 
M343.114258,251.715866 
	C342.208832,250.509262 341.338257,248.287888 340.392517,248.255432 
	C332.298889,247.977478 324.191681,248.096054 316.249512,248.096054 
	C316.249512,267.777802 315.503479,286.914734 316.559296,305.951721 
	C317.099976,315.700806 323.999695,323.075745 333.822449,325.085999 
	C342.943817,326.952759 352.461487,326.883057 361.913269,327.675049 
	C361.913269,317.951447 361.913269,309.587280 361.913269,301.364075 
	C361.138367,301.141113 360.826752,300.977112 360.512817,300.972504 
	C357.184570,300.923584 353.855988,300.880859 350.527466,300.873322 
	C342.890869,300.856079 342.876556,300.863953 343.148468,293.078827 
	C343.181152,292.142426 343.469604,291.214966 343.709869,289.897522 
	C349.852814,289.897522 355.789856,289.897522 361.982849,289.897522 
	C361.982849,281.104767 361.982849,272.752319 361.982849,263.745575 
	C355.552704,263.745575 349.498016,263.745575 343.118225,263.745575 
	C343.118225,259.614075 343.118225,256.137054 343.114258,251.715866 
M459.884766,253.701691 
	C459.797394,251.942154 459.709991,250.182617 459.625488,248.481171 
	C450.176300,248.481171 441.296936,248.481171 432.376831,248.481171 
	C432.376831,274.764679 432.376831,300.637512 432.376831,326.697693 
	C441.576508,326.697693 450.459778,326.697693 459.884949,326.697693 
	C459.884949,302.481598 459.884949,278.569489 459.884766,253.701691 
z"/>
<path fill="#FC3131" opacity="1.000000" stroke="none" 
	d="
M293.118958,265.129852 
	C299.706787,264.587799 306.294617,264.045746 313.358887,263.464508 
	C313.358887,272.652740 313.358887,281.033875 313.358887,290.265594 
	C310.884186,290.265594 308.456329,290.417053 306.054688,290.230652 
	C302.299927,289.939270 301.118561,291.614838 301.173920,295.228210 
	C301.331787,305.540833 301.229431,315.857422 301.229431,326.587830 
	C292.051361,326.587830 283.164246,326.587830 274.264801,326.587830 
	C274.264801,313.173553 273.417969,299.651581 274.653442,286.322601 
	C275.199310,280.433655 279.967316,274.936096 282.882782,269.133087 
	C277.227905,269.133087 270.297363,269.133087 262.466492,269.133087 
	C263.986511,264.963501 264.945038,261.650360 266.388092,258.563721 
	C267.899078,255.331802 267.876587,252.589874 266.390930,249.186829 
	C258.473663,231.051270 250.882797,212.773132 243.195541,194.537354 
	C242.622971,193.179092 242.180283,191.766083 241.278030,189.277466 
	C246.522079,189.277466 251.226578,189.195938 255.926971,189.299835 
	C260.865967,189.409012 266.929260,188.029556 270.411255,190.387253 
	C273.700043,192.614120 274.311920,198.836700 276.031036,203.328598 
	C278.101410,208.738449 280.097687,214.176666 282.464142,220.506958 
	C285.789795,210.821732 288.942200,202.133865 291.706238,193.324142 
	C292.674530,190.238113 294.098206,189.131134 297.318420,189.211151 
	C305.586517,189.416626 313.863129,189.279800 323.066925,189.279800 
	C312.701569,214.677826 302.676025,239.243286 292.470276,264.335693 
	C292.566376,264.951691 292.842682,265.040771 293.118958,265.129852 
z"/>
<path fill="#FE3131" opacity="1.000000" stroke="none" 
	d="
M152.144394,238.313538 
	C144.647141,239.623581 137.510559,240.784729 129.855453,242.030243 
	C129.855453,231.867554 129.855453,223.103699 129.855453,213.957047 
	C132.548813,213.696075 135.424042,214.049026 137.657959,213.015610 
	C139.711502,212.065628 142.139008,209.763748 142.399368,207.792923 
	C142.601395,206.263580 140.032883,203.507416 138.127197,202.773849 
	C135.627960,201.811798 132.484879,201.866638 129.795273,202.390579 
	C128.777084,202.588928 127.619759,205.302063 127.598923,206.883072 
	C127.423279,220.211655 127.496414,233.543518 127.494827,246.874405 
	C127.494614,248.681793 127.494797,250.489166 127.494797,252.647125 
	C117.617195,252.647125 108.212418,252.647125 98.401627,252.647125 
	C98.401627,226.682816 98.401627,200.628815 98.401627,174.230682 
	C99.188141,174.067673 100.109741,173.710434 101.031197,173.710815 
	C113.527824,173.716156 126.038399,173.411301 138.517853,173.895905 
	C158.540695,174.673416 172.695343,189.982224 172.023132,209.943268 
	C171.570984,223.369736 164.962357,232.873230 152.144394,238.313538 
z"/>
<path fill="#FE3131" opacity="1.000000" stroke="none" 
	d="
M151.000000,248.169891 
	C159.144791,248.426697 166.873337,248.057449 174.417877,249.065491 
	C192.297607,251.454437 204.191345,267.048615 203.102798,285.781799 
	C202.144104,302.280121 188.873077,314.348694 170.894608,315.011993 
	C167.780670,315.126892 164.658890,315.028290 161.286255,315.028290 
	C161.286255,305.831909 161.286255,297.104187 161.286255,288.139954 
	C163.851944,288.005280 166.171921,288.055817 168.435715,287.723572 
	C171.706131,287.243591 174.202576,285.652191 173.972626,281.893860 
	C173.762650,278.461884 171.418884,277.000244 168.245804,276.848145 
	C165.433167,276.713318 162.608932,276.819885 159.249847,276.819885 
	C159.249847,293.425323 159.249847,309.824371 159.249847,326.609863 
	C149.336487,326.609863 139.955841,326.609863 130.188934,326.609863 
	C130.188934,300.724091 130.188934,274.842468 130.188934,248.169907 
	C136.969543,248.169907 143.734833,248.169907 151.000000,248.169891 
z"/>
<path fill="#FD3131" opacity="1.000000" stroke="none" 
	d="
M195.221283,250.935822 
	C180.396729,244.188477 172.934021,232.120010 174.031876,217.157288 
	C174.999619,203.967850 185.010361,192.172913 198.298431,188.565750 
	C217.694077,183.300629 237.900970,197.222595 239.073349,217.258774 
	C239.760590,229.003845 239.198685,240.822037 239.198685,252.802917 
	C230.186401,252.802917 221.565353,252.802917 212.127243,252.802917 
	C212.127243,246.460785 212.128586,240.205307 212.126801,233.949844 
	C212.125626,229.787903 212.117935,225.625961 212.117035,221.464020 
	C212.116272,217.900665 210.942856,215.126389 206.932938,214.859375 
	C203.571075,214.635498 201.385254,216.569946 201.199234,219.799332 
	C200.961395,223.928070 203.688889,225.648819 207.519455,225.923431 
	C208.337112,225.982040 209.152756,226.069016 210.345825,226.177002 
	C210.345825,235.003372 210.345825,243.702316 210.345825,253.605270 
	C205.190796,252.712387 200.392365,251.881287 195.221283,250.935822 
z"/>
<path fill="#FD3131" opacity="1.000000" stroke="none" 
	d="
M264.711365,315.667786 
	C253.013611,329.496979 235.274887,332.766327 221.020691,323.955414 
	C206.840164,315.190033 200.925278,297.731781 207.526642,282.621399 
	C212.970062,270.161560 222.744949,262.930786 236.432114,262.127808 
	C250.158981,261.322510 260.792694,267.432434 267.402985,279.276123 
	C274.256500,291.555603 273.205658,303.859528 264.711365,315.667786 
M232.847015,294.676483 
	C233.609894,300.093964 237.427231,302.800690 240.989151,300.085846 
	C242.515976,298.922150 243.775558,296.191528 243.573410,294.346252 
	C243.400101,292.764252 241.208420,290.721130 239.485565,290.141418 
	C236.444000,289.118011 234.054504,290.699493 232.847015,294.676483 
z"/>
<path fill="#FE3131" opacity="1.000000" stroke="none" 
	d="
M377.200073,269.159485 
	C387.478149,261.335663 398.465240,259.758850 409.920624,264.632874 
	C421.541412,269.577240 428.679871,278.730347 429.597931,291.342529 
	C430.439728,302.906891 429.776703,314.580750 429.776703,326.603851 
	C420.926392,326.603851 412.235626,326.603851 402.936768,326.603851 
	C402.936768,317.587677 402.941833,308.656738 402.932587,299.725769 
	C402.930695,297.896362 403.084717,296.033417 402.798096,294.245056 
	C402.299377,291.133362 400.423828,288.478333 397.202362,289.259552 
	C395.184021,289.748932 392.745972,292.177856 392.194916,294.199554 
	C391.338043,297.343323 393.727203,299.378845 396.938873,299.952667 
	C398.076111,300.155853 399.251221,300.147278 400.822693,300.266846 
	C400.822693,308.999390 400.822693,317.698059 400.822693,326.377686 
	C388.190094,328.759918 374.142059,321.081482 368.119110,308.593201 
	C361.545502,294.963226 364.984772,279.640137 377.200073,269.159485 
z"/>
<path fill="#FE3131" opacity="1.000000" stroke="none" 
	d="
M343.116241,252.187943 
	C343.118225,256.137054 343.118225,259.614075 343.118225,263.745575 
	C349.498016,263.745575 355.552704,263.745575 361.982849,263.745575 
	C361.982849,272.752319 361.982849,281.104767 361.982849,289.897522 
	C355.789856,289.897522 349.852814,289.897522 343.709869,289.897522 
	C343.469604,291.214966 343.181152,292.142426 343.148468,293.078827 
	C342.876556,300.863953 342.890869,300.856079 350.527466,300.873322 
	C353.855988,300.880859 357.184570,300.923584 360.512817,300.972504 
	C360.826752,300.977112 361.138367,301.141113 361.913269,301.364075 
	C361.913269,309.587280 361.913269,317.951447 361.913269,327.675049 
	C352.461487,326.883057 342.943817,326.952759 333.822449,325.085999 
	C323.999695,323.075745 317.099976,315.700806 316.559296,305.951721 
	C315.503479,286.914734 316.249512,267.777802 316.249512,248.096054 
	C324.191681,248.096054 332.298889,247.977478 340.392517,248.255432 
	C341.338257,248.287888 342.208832,250.509262 343.116241,252.187943 
z"/>
<path fill="#FC3131" opacity="1.000000" stroke="none" 
	d="
M459.884857,254.179535 
	C459.884949,278.569489 459.884949,302.481598 459.884949,326.697693 
	C450.459778,326.697693 441.576508,326.697693 432.376831,326.697693 
	C432.376831,300.637512 432.376831,274.764679 432.376831,248.481171 
	C441.296936,248.481171 450.176300,248.481171 459.625488,248.481171 
	C459.709991,250.182617 459.797394,251.942154 459.884857,254.179535 
z"/>
<path fill="#292929" opacity="1.000000" stroke="none" 
	d="
M292.952576,264.973206 
	C292.842682,265.040771 292.566376,264.951691 292.369843,264.684998 
	C292.449585,264.507416 292.786194,264.816559 292.952576,264.973206 
z"/>
<path fill="#302929" opacity="1.000000" stroke="none" 
	d="
M232.912308,294.272736 
	C234.054504,290.699493 236.444000,289.118011 239.485565,290.141418 
	C241.208420,290.721130 243.400101,292.764252 243.573410,294.346252 
	C243.775558,296.191528 242.515976,298.922150 240.989151,300.085846 
	C237.427231,302.800690 233.609894,300.093964 232.912308,294.272736 
z"/>
</svg>